<mxfile host="app.diagrams.net" modified="2023-10-30T13:26:11.390Z" agent="Mozilla/5.0 (Windows NT 10.0; Win64; x64; rv:109.0) Gecko/20100101 Firefox/119.0" version="22.0.0" etag="EEwmuO4Uj7nrqh3prp_8" type="github">
  <diagram name="Page-1" id="uKjtFc9M2Uwl9UPxMeZr">
    <mxGraphModel>
      <root>
        <mxCell id="0" />
        <mxCell id="1" parent="0" />
      </root>
    </mxGraphModel>
  </diagram>
</mxfile>
